<svg id="visual" viewBox="0 0 960 300" width="960" height="300" xmlns="http://www.w3.org/2000/svg" xmlns:xlink="http://www.w3.org/1999/xlink" version="1.1"><rect x="0" y="0" width="960" height="300" fill="#001220"></rect><path d="M0 136L13.3 140.8C26.7 145.7 53.3 155.3 80 158.3C106.7 161.3 133.3 157.7 160 155C186.7 152.3 213.3 150.7 240 154.3C266.7 158 293.3 167 320 166.5C346.7 166 373.3 156 400 152.5C426.7 149 453.3 152 480 153.5C506.7 155 533.3 155 560 155.3C586.7 155.7 613.3 156.3 640 158.2C666.7 160 693.3 163 720 157.7C746.7 152.3 773.3 138.7 800 132.7C826.7 126.7 853.3 128.3 880 127.3C906.7 126.3 933.3 122.7 946.7 120.8L960 119L960 301L946.7 301C933.3 301 906.7 301 880 301C853.3 301 826.7 301 800 301C773.3 301 746.7 301 720 301C693.3 301 666.7 301 640 301C613.3 301 586.7 301 560 301C533.3 301 506.7 301 480 301C453.3 301 426.7 301 400 301C373.3 301 346.7 301 320 301C293.3 301 266.7 301 240 301C213.3 301 186.7 301 160 301C133.3 301 106.7 301 80 301C53.3 301 26.7 301 13.3 301L0 301Z" fill="#fa7268"></path><path d="M0 202L13.3 197.3C26.7 192.7 53.3 183.3 80 177.8C106.7 172.3 133.3 170.7 160 171.3C186.7 172 213.3 175 240 172.2C266.7 169.3 293.3 160.7 320 155.7C346.7 150.7 373.3 149.3 400 146.5C426.7 143.7 453.3 139.3 480 143.3C506.7 147.3 533.3 159.7 560 167.2C586.7 174.7 613.3 177.3 640 179.7C666.7 182 693.3 184 720 184.7C746.7 185.3 773.3 184.7 800 182.3C826.7 180 853.3 176 880 169.3C906.7 162.7 933.3 153.3 946.7 148.7L960 144L960 301L946.7 301C933.3 301 906.7 301 880 301C853.3 301 826.7 301 800 301C773.3 301 746.7 301 720 301C693.3 301 666.7 301 640 301C613.3 301 586.7 301 560 301C533.3 301 506.7 301 480 301C453.3 301 426.7 301 400 301C373.3 301 346.7 301 320 301C293.3 301 266.7 301 240 301C213.3 301 186.7 301 160 301C133.3 301 106.7 301 80 301C53.3 301 26.7 301 13.3 301L0 301Z" fill="#f45f56"></path><path d="M0 228L13.3 221.5C26.7 215 53.3 202 80 200.7C106.7 199.3 133.3 209.7 160 214.3C186.7 219 213.3 218 240 211.3C266.7 204.7 293.3 192.3 320 190.2C346.7 188 373.3 196 400 196.3C426.7 196.7 453.3 189.3 480 187.5C506.7 185.7 533.3 189.3 560 187.3C586.7 185.3 613.3 177.7 640 176.5C666.7 175.3 693.3 180.7 720 186.7C746.7 192.7 773.3 199.3 800 199.7C826.7 200 853.3 194 880 187.8C906.7 181.7 933.3 175.3 946.7 172.2L960 169L960 301L946.7 301C933.3 301 906.7 301 880 301C853.3 301 826.7 301 800 301C773.3 301 746.7 301 720 301C693.3 301 666.7 301 640 301C613.3 301 586.7 301 560 301C533.3 301 506.7 301 480 301C453.3 301 426.7 301 400 301C373.3 301 346.7 301 320 301C293.3 301 266.7 301 240 301C213.3 301 186.7 301 160 301C133.3 301 106.7 301 80 301C53.3 301 26.7 301 13.3 301L0 301Z" fill="#ee4a44"></path><path d="M0 231L13.3 231.2C26.7 231.3 53.3 231.7 80 232.5C106.7 233.3 133.3 234.7 160 238.2C186.7 241.7 213.3 247.3 240 245C266.7 242.7 293.3 232.3 320 225.8C346.7 219.3 373.3 216.7 400 217.8C426.7 219 453.3 224 480 225.2C506.7 226.3 533.3 223.7 560 222.2C586.7 220.7 613.3 220.3 640 219.5C666.7 218.7 693.3 217.3 720 220.5C746.7 223.7 773.3 231.3 800 232.5C826.7 233.7 853.3 228.3 880 222.5C906.7 216.7 933.3 210.3 946.7 207.2L960 204L960 301L946.7 301C933.3 301 906.7 301 880 301C853.3 301 826.7 301 800 301C773.3 301 746.7 301 720 301C693.3 301 666.7 301 640 301C613.3 301 586.7 301 560 301C533.3 301 506.7 301 480 301C453.3 301 426.7 301 400 301C373.3 301 346.7 301 320 301C293.3 301 266.7 301 240 301C213.3 301 186.7 301 160 301C133.3 301 106.7 301 80 301C53.3 301 26.7 301 13.3 301L0 301Z" fill="#e73133"></path><path d="M0 254L13.3 255.8C26.7 257.7 53.3 261.3 80 259C106.7 256.7 133.3 248.3 160 244.5C186.7 240.7 213.3 241.3 240 241.8C266.7 242.3 293.3 242.7 320 244.5C346.7 246.3 373.3 249.7 400 252.8C426.7 256 453.3 259 480 260C506.7 261 533.3 260 560 256.5C586.7 253 613.3 247 640 245.3C666.7 243.7 693.3 246.3 720 250.2C746.7 254 773.3 259 800 262.7C826.7 266.3 853.3 268.7 880 269C906.7 269.3 933.3 267.7 946.7 266.8L960 266L960 301L946.7 301C933.3 301 906.7 301 880 301C853.3 301 826.7 301 800 301C773.3 301 746.7 301 720 301C693.3 301 666.7 301 640 301C613.3 301 586.7 301 560 301C533.3 301 506.7 301 480 301C453.3 301 426.7 301 400 301C373.3 301 346.7 301 320 301C293.3 301 266.7 301 240 301C213.3 301 186.7 301 160 301C133.3 301 106.7 301 80 301C53.3 301 26.7 301 13.3 301L0 301Z" fill="#df0321"></path></svg>